<svg width="170" height="46" viewBox="0 0 170 46" fill="none" xmlns="http://www.w3.org/2000/svg">
<path d="M2.55507 0.953613V27.2653C2.55507 28.5866 2.68932 30.169 2.95782 32.0109C3.24672 33.8115 3.80497 35.5932 4.63172 37.3569C5.49586 39.1189 6.83158 40.5801 8.63803 41.7416C10.4062 42.9246 12.7888 43.5328 15.7857 43.5749C20.8966 43.5328 24.5188 42.0612 26.6532 39.1584C28.6534 36.2753 29.6314 32.3115 29.5923 27.2653V0.953613H32.1414V27.2628C32.1813 32.6088 31.0411 37.003 28.7222 40.4478C26.2887 44.0121 21.9774 45.8334 15.7882 45.9141C12.1277 45.872 9.22432 45.1736 7.07799 43.8103C4.91297 42.4692 3.32234 40.7889 2.30781 38.7666C1.32896 36.765 0.696789 34.7127 0.409592 32.6088C0.102003 30.5281 -0.0330982 28.7447 0.00683743 27.2628V0.953613H2.55507Z" fill="white"/>
<path d="M40.8789 0.953613H44.1332L70.7057 41.2614H70.8204V0.953613H73.3703V44.8635H70.3183L43.5435 4.25504H43.4288V44.8635H40.8789L40.8789 0.953613Z" fill="white"/>
<path d="M82.1084 0.953613H84.6583V44.8635H82.1084V0.953613Z" fill="white"/>
<path d="M137.509 0.953613H140.761L167.333 41.2614H167.45V0.953613H170V44.8635H166.946L140.172 4.25504H140.058V44.8635H137.508V0.953613H137.509Z" fill="white"/>
<path d="M111.809 2.64251C122.911 2.64251 131.943 11.7753 131.943 22.9991C131.943 29.5582 128.848 35.387 124.069 39.1111L125.516 41.3232C130.998 37.1232 134.557 30.4911 134.557 22.9991C134.557 10.2977 124.373 0 111.809 0C107.676 0 103.81 1.13226 100.47 3.08064L101.916 5.28846C104.842 3.61241 108.211 2.64251 111.809 2.64251Z" fill="white"/>
<path d="M111.809 43.3584C100.705 43.3584 91.6726 34.2256 91.6726 23.0001C91.6726 16.3328 94.8743 10.4232 99.788 6.70772L98.3393 4.49561C92.7211 8.68359 89.0598 15.4016 89.0598 23.0001C89.0598 35.7023 99.2451 46.0001 111.809 46.0001C116.049 46.0001 120.005 44.8068 123.404 42.7622L121.957 40.5553C118.972 42.3249 115.512 43.3584 111.809 43.3584Z" fill="white"/>
</svg>
